HIERARCHY
ROOT Hips
{
	OFFSET 0.000000 0.000000 0.000000 
	CHANNELS 6 Xposition Yposition Zposition Zrotation Yrotation Xrotation
	JOINT LeftUpLeg
	{
		OFFSET 1.363060 -1.794630 0.839290 
		CHANNELS 3 Zrotation Yrotation Xrotation
		JOINT LeftLeg
		{
			OFFSET 2.448110 -6.726130 0.000000 
			CHANNELS 3 Zrotation Yrotation Xrotation
			JOINT LeftFoot
			{
				OFFSET 2.562200 -7.039590 0.000000 
				CHANNELS 3 Zrotation Yrotation Xrotation
				JOINT LeftToeBase
				{
					OFFSET 0.157640 -0.433110 2.322550 
					CHANNELS 3 Zrotation Yrotation Xrotation
					End Site
					{
						OFFSET 0.000000 0.000000 0.000000 
					}
				}
			}
		}
	}
	JOINT RightUpLeg
	{
		OFFSET -1.305520 -1.794630 0.839290 
		CHANNELS 3 Zrotation Yrotation Xrotation
		JOINT RightLeg
		{
			OFFSET -2.542530 -6.985550 0.000000 
			CHANNELS 3 Zrotation Yrotation Xrotation
			JOINT RightFoot
			{
				OFFSET -2.568260 -7.056230 0.000000 
				CHANNELS 3 Zrotation Yrotation Xrotation
				JOINT RightToeBase
				{
					OFFSET -0.164730 -0.452590 2.363150 
					CHANNELS 3 Zrotation Yrotation Xrotation
					End Site
					{
						OFFSET 0.000000 0.000000 0.000000 
					}
				}
			}
		}
	}
	JOINT Spine
	{
		OFFSET 0.028270 2.035590 -0.193380 
		CHANNELS 3 Zrotation Yrotation Xrotation
		JOINT Spine1
		{
			OFFSET 0.056720 2.048850 -0.042750 
			CHANNELS 3 Zrotation Yrotation Xrotation
			JOINT Neck1
			{
				OFFSET -0.054170 1.746240 0.172020 
				CHANNELS 3 Zrotation Yrotation Xrotation
				JOINT Head
				{
					OFFSET 0.104070 1.761360 -0.123970 
					CHANNELS 3 Zrotation Yrotation Xrotation
					End Site
					{
						OFFSET 0.000000 0.000000 0.000000 
					}
				}
			}
			JOINT LeftArm
			{
				OFFSET 3.362410 1.200890 -0.311210 
				CHANNELS 3 Zrotation Yrotation Xrotation
				JOINT LeftForeArm
				{
					OFFSET 4.983000 -0.000000 -0.000000 
					CHANNELS 3 Zrotation Yrotation Xrotation
					JOINT LeftHand
					{
						OFFSET 3.483560 -0.000000 -0.000000 
						CHANNELS 3 Zrotation Yrotation Xrotation
						JOINT LeftHandIndex1
						{
							OFFSET 0.715260 -0.000000 -0.000000 
							CHANNELS 3 Zrotation Yrotation Xrotation
							End Site
							{
								OFFSET 0.000000 0.000000 0.000000 
							}
						}
					}
				}
			}
			JOINT RightArm
			{
				OFFSET -3.136600 1.374050 -0.404650 
				CHANNELS 3 Zrotation Yrotation Xrotation
				JOINT RightForeArm
				{
					OFFSET -5.241900 -0.000000 -0.000000 
					CHANNELS 3 Zrotation Yrotation Xrotation
					JOINT RightHand
					{
						OFFSET -3.444170 -0.000000 -0.000000 
						CHANNELS 3 Zrotation Yrotation Xrotation
						JOINT RightHandIndex1
						{
							OFFSET -0.622530 -0.000000 -0.000000 
							CHANNELS 3 Zrotation Yrotation Xrotation
							End Site
							{
								OFFSET 0.000000 0.000000 0.000000 
							}
						}
					}
				}
			}
		}
	}
}
MOTION
Frames: 17
Frame Time: 0.041667
6.803635 17.895648 -2.529115 9.529051 -51.606793 -7.230727 -27.024186 -6.332731 -9.643379 0.327266 6.692848 20.820585 0.225850 -4.459605 -3.289239 0.016900 0.839700 2.307900 12.352515 5.882884 -17.625562 -14.202259 -18.619600 73.141193 -0.181266 -1.090550 6.556399 -0.171700 -2.669300 7.359300 0.348320 0.736227 3.330736 -0.029882 0.494152 -4.725128 4.101213 -2.637738 18.358251 3.227400 -1.833100 12.479700 -82.899620 3.304891 20.784406 17.325891 -24.340039 -4.247805 -0.814372 -1.864565 11.037322 -7.125000 0.000000 0.000000 85.495964 -4.587790 11.575717 -20.982861 29.941605 -5.691775 0.214998 -0.087989 8.098218 7.125000 0.000000 0.000000 
6.711870 17.883770 -2.441607 9.383276 -51.396955 -7.154995 -27.065522 -6.463094 -9.160452 0.357723 6.759592 21.037141 0.238170 -4.294771 -3.780585 0.020500 0.923900 2.539400 12.423188 6.104790 -18.800383 -14.242421 -18.657509 73.278140 -0.142205 -1.010535 5.191844 -0.115800 -2.194000 6.042100 0.420592 0.550048 3.244636 0.085926 0.403442 -4.895605 4.004626 -2.524696 18.603018 3.208900 -1.805300 12.555100 -82.764163 3.098327 21.030174 17.565301 -24.661664 -4.378830 -0.743764 -1.872941 11.092855 -7.125000 0.000000 0.000000 85.054447 -5.342517 13.354196 -21.752172 30.847050 -6.110863 0.224114 -0.065576 6.403028 7.125000 0.000000 0.000000 
6.619017 17.868327 -2.354000 9.345913 -51.213545 -7.196824 -27.162114 -6.398965 -8.790864 0.412730 6.871365 21.388677 0.268622 -4.372297 -4.334748 0.018300 0.872700 2.398700 12.428273 6.414639 -19.862950 -14.229179 -18.677931 73.247268 -0.112380 -0.960992 3.911253 -0.118600 -2.220100 6.114400 0.437809 0.430239 3.226249 0.159758 0.342322 -4.954114 4.000716 -2.529929 18.659422 3.205800 -1.810600 12.554900 -82.438048 2.706266 21.706603 17.669914 -24.803407 -4.445163 -0.746800 -1.826174 10.451696 -7.125000 0.000000 0.000000 84.852219 -5.708212 14.253201 -22.281043 31.465637 -6.406409 0.226580 -0.055796 5.433379 7.125000 0.000000 0.000000 
6.524580 17.853082 -2.268472 9.459035 -51.003388 -7.371005 -27.349278 -6.201300 -8.502846 0.486346 7.011679 21.828992 0.316346 -4.665548 -4.945866 0.015000 0.790900 2.173500 12.310472 6.619192 -20.902188 -14.162105 -18.683349 73.053438 -0.109540 -0.759893 2.676625 -0.090200 -1.936700 5.330800 0.457758 0.320226 3.317970 0.331347 0.281998 -4.820456 4.002905 -2.558923 18.603007 3.203000 -1.820500 12.543800 -82.191991 2.051961 22.382263 17.758847 -24.917724 -4.492860 -0.797078 -1.818549 9.466369 -7.125000 0.000000 0.000000 84.707261 -5.499025 14.332960 -22.444005 31.665243 -6.499283 0.225134 -0.055953 5.337702 7.125000 0.000000 0.000000 
6.430143 17.838135 -2.184231 9.638138 -50.783940 -7.591224 -27.579061 -6.137827 -8.173385 0.556661 7.140695 22.238774 0.352359 -4.896511 -5.391596 0.046100 1.385200 3.809300 12.121226 6.818679 -21.931315 -14.048559 -18.674529 72.717298 -0.132534 -0.424281 1.560768 -0.085000 -1.880000 5.174100 0.464813 0.189967 3.349731 0.484619 0.214750 -4.807889 4.066271 -2.580168 18.646628 3.239400 -1.830400 12.577700 -82.033829 1.533337 22.816562 17.925622 -25.136240 -4.577168 -0.823200 -1.854265 8.929058 -7.125000 0.000000 0.000000 84.559268 -5.396682 14.375850 -22.577329 31.825997 -6.574917 0.223264 -0.056412 5.406466 7.125000 0.000000 0.000000 
6.335211 17.821900 -2.096327 9.801022 -50.629128 -7.783628 -27.796512 -6.206435 -7.780022 0.619045 7.256605 22.609339 0.375209 -4.950904 -5.771254 0.143900 2.444600 6.736000 11.952600 7.046522 -22.925105 -13.881901 -18.646982 72.213635 -0.162136 -0.109800 0.635975 -0.080800 -1.833800 5.046600 0.452800 0.073303 3.315772 0.563761 0.155422 -4.879343 4.222425 -2.597428 18.610890 3.317400 -1.831500 12.533700 -81.783086 1.169923 23.378992 18.078186 -25.340120 -4.659615 -0.828392 -1.884013 8.597596 -7.125000 0.000000 0.000000 84.430841 -5.504320 14.432653 -22.723777 31.997324 -6.656789 0.223140 -0.060739 5.455194 7.125000 0.000000 0.000000 
6.240971 17.804280 -2.010502 9.929981 -50.511575 -7.970879 -27.989875 -6.227976 -7.367010 0.679498 7.366222 22.962488 0.404388 -5.015978 -6.220358 0.218600 3.009800 8.306100 11.833213 7.252363 -23.892187 -13.670462 -18.602537 71.567874 -0.192184 0.160969 -0.114663 -0.040800 -1.303800 3.585100 0.440139 -0.025735 3.287211 0.650113 0.106862 -4.984932 4.296733 -2.629487 18.584376 3.335100 -1.833400 12.505200 -81.529398 0.778052 23.778584 18.226959 -25.537641 -4.739178 -0.835419 -1.906804 8.377119 -7.125000 0.000000 0.000000 84.370305 -5.564429 14.467298 -22.837673 32.127034 -6.719984 0.225520 -0.059142 5.524997 7.125000 0.000000 0.000000 
6.146138 17.781314 -1.929726 10.087066 -50.389407 -8.087972 -28.181652 -6.060906 -7.101821 0.735513 7.465055 23.280564 0.444248 -5.150011 -6.739924 0.173400 2.682700 7.396500 11.703654 7.464150 -24.964282 -13.424595 -18.547665 70.809791 -0.195631 0.168380 -0.874276 -0.012600 -0.724200 1.990300 0.430836 -0.090073 3.292314 0.789323 0.076731 -4.986029 4.134203 -2.681187 18.617365 3.235300 -1.859600 12.524900 -81.392584 0.322155 23.829972 18.420496 -25.785382 -4.844060 -0.814910 -1.896236 8.371847 -7.125000 0.000000 0.000000 84.350142 -5.450791 14.442953 -22.900197 32.200184 -6.755303 0.226453 -0.055584 5.566278 7.125000 0.000000 0.000000 
6.049820 17.754686 -1.845584 10.286855 -50.264515 -8.214211 -28.403846 -5.934893 -6.816476 0.784878 7.550733 23.558726 0.480596 -5.217411 -7.243673 0.118800 2.222100 6.119700 11.494681 7.667511 -26.012031 -13.143642 -18.478406 69.938415 -0.192281 0.082935 -1.739394 -0.005300 -0.470300 1.292200 0.416900 -0.167108 3.289668 0.894487 0.037115 -4.962654 4.157329 -2.709788 18.699664 3.254000 -1.877700 12.577900 -81.272287 -0.084729 23.993156 18.606407 -26.021784 -4.947164 -0.785176 -1.893105 8.263137 -7.125000 0.000000 0.000000 84.256089 -5.438095 14.577886 -23.009342 32.327189 -6.818328 0.226137 -0.053999 5.586251 7.125000 0.000000 0.000000 
5.953304 17.744094 -1.755898 10.368693 -50.122606 -8.261464 -28.533823 -6.021679 -6.436697 0.828932 7.617582 23.783609 0.511852 -5.470602 -7.504480 0.203600 2.905400 8.015400 11.339740 7.802595 -26.896395 -12.794851 -18.374990 68.850207 -0.213307 0.176903 -2.525827 -0.007000 -0.538800 1.480600 0.419680 -0.231743 3.277839 0.940510 0.000244 -4.956870 4.284945 -2.767004 18.681040 3.319400 -1.900600 12.566700 -81.086138 -0.478417 24.442217 18.783802 -26.248505 -5.047609 -0.762458 -1.906001 7.921674 -7.125000 0.000000 0.000000 84.157221 -5.489813 14.666681 -23.115182 32.450311 -6.878889 0.226165 -0.056405 5.588689 7.125000 0.000000 0.000000 
5.856788 17.733898 -1.674033 10.585664 -49.910437 -8.354467 -28.741024 -5.976509 -6.154611 0.869901 7.670454 23.968862 0.542754 -5.814466 -7.694040 0.327100 3.675800 10.166400 11.170339 7.920290 -27.805521 -12.385497 -18.241585 67.562746 -0.214676 0.104046 -3.168673 -0.009200 -0.618500 1.699600 0.387165 -0.381993 3.256521 1.062146 -0.074151 -4.960203 4.361611 -2.744820 18.628846 3.345400 -1.876700 12.534800 -80.878851 -0.896837 24.543964 18.969621 -26.486748 -5.150368 -0.753907 -1.900421 7.777523 -7.125000 0.000000 0.000000 84.173107 -5.370724 14.699886 -23.122421 32.461341 -6.883580 0.227204 -0.058136 5.535199 7.125000 0.000000 0.000000 
5.757699 17.720633 -1.596226 10.750833 -49.682806 -8.373882 -28.899720 -5.946200 -5.808324 0.889957 7.686097 24.041574 0.564844 -6.010673 -7.872425 0.382300 3.970700 10.994300 11.086816 7.983213 -28.706795 -11.916621 -18.074147 66.075608 -0.197365 -0.126813 -3.784213 -0.023800 -0.996400 2.738900 0.393151 -0.570548 3.216607 1.303145 -0.162162 -4.997287 4.234629 -2.605058 18.619742 3.275100 -1.807900 12.520000 -80.758059 -1.283899 24.411125 19.158915 -26.727027 -5.252514 -0.745274 -1.901253 7.843175 -7.125000 0.000000 0.000000 84.082887 -5.351317 15.010219 -23.170252 32.512247 -6.910372 0.232512 -0.056071 5.230707 7.125000 0.000000 0.000000 
5.656332 17.714198 -1.516538 10.748746 -49.496690 -8.307161 -28.935691 -5.913866 -5.374886 0.889332 7.658775 23.983894 0.586439 -6.272267 -7.982393 0.413500 4.127800 11.436500 11.115252 7.996132 -29.451765 -11.403939 -17.868054 64.431300 -0.191868 -0.261409 -4.330555 -0.059300 -1.571500 4.322700 0.419195 -0.687300 3.178484 1.458198 -0.218829 -5.054782 4.209320 -2.573484 18.478791 3.259500 -1.789500 12.448800 -80.699449 -1.616241 24.390203 19.338831 -26.951101 -5.350607 -0.741691 -1.903176 7.756787 -7.125000 0.000000 0.000000 83.999043 -5.386268 15.117682 -23.208120 32.554372 -6.932339 0.231854 -0.055041 5.143740 7.125000 0.000000 0.000000 
5.556054 17.713901 -1.430713 10.761672 -49.360629 -8.253338 -28.977371 -5.658579 -4.957620 0.873381 7.589707 23.803461 0.605059 -6.675668 -7.963719 0.439600 4.254300 11.793100 11.110755 7.985232 -30.111503 -10.859532 -17.626823 62.663211 -0.185893 -0.381389 -4.743517 -0.091900 -1.955500 5.382800 0.423100 -0.777794 3.186705 1.519575 -0.272055 -4.987243 4.406548 -2.653315 18.265305 3.343800 -1.807700 12.350300 -80.543847 -2.028428 24.569422 19.444894 -27.081240 -5.410750 -0.749681 -1.889881 7.596173 -7.125000 0.000000 0.000000 83.976813 -5.327288 15.011894 -23.174183 32.521244 -6.914150 0.228321 -0.058037 5.339928 7.125000 0.000000 0.000000 
5.453797 17.705685 -1.340830 10.806554 -49.258281 -8.145659 -29.054072 -5.368356 -4.539460 0.839696 7.493862 23.537073 0.632696 -6.890027 -8.185146 0.314000 3.602000 9.959500 11.095953 8.062607 -30.774349 -10.285342 -17.351006 60.772886 -0.152113 -0.715631 -5.165293 -0.090900 -1.944300 5.351900 0.445508 -0.809515 3.197820 1.624029 -0.295768 -4.850649 4.398269 -2.704897 18.280581 3.325300 -1.826200 12.365900 -80.392688 -2.511057 24.897405 19.530052 -27.181474 -5.462577 -0.733671 -1.876914 7.332951 -7.125000 0.000000 0.000000 83.995435 -5.167757 14.566923 -23.049320 32.386999 -6.841422 0.226628 -0.063076 5.855155 7.125000 0.000000 0.000000 
5.350055 17.707170 -1.249560 10.831002 -49.213469 -8.044189 -29.135669 -5.422372 -3.940775 0.782735 7.363064 23.162544 0.639187 -6.808725 -8.336468 0.329000 3.686700 10.196800 11.134655 8.185390 -31.310798 -9.672710 -17.026561 58.721147 -0.089407 -1.247033 -5.540995 -0.060300 -1.584800 4.359600 0.485740 -0.829696 3.166281 1.739572 -0.309846 -4.808640 4.399369 -2.711608 18.403927 3.326600 -1.831600 12.429600 -80.302454 -2.815810 25.302062 19.696414 -27.388261 -5.559387 -0.721897 -1.891021 6.850933 -7.125000 0.000000 0.000000 83.937633 -5.135853 14.351656 -22.965597 32.292874 -6.791597 0.228000 -0.064841 6.014680 7.125000 0.000000 0.000000 
5.249579 17.719445 -1.166804 10.774025 -49.071522 -7.903812 -29.106537 -5.342935 -3.352868 0.706993 7.194961 22.673946 0.649719 -6.686601 -8.546207 0.385100 3.985000 11.034600 11.260158 8.251977 -31.722661 -9.031087 -16.649806 56.526676 -0.012660 -1.802233 -5.608506 -0.028700 -1.094100 3.007700 0.495361 -0.969549 3.135352 1.804852 -0.383917 -4.832633 4.602023 -2.733996 18.384672 3.417000 -1.823000 12.445800 -80.184641 -3.138082 25.391397 19.845151 -27.572668 -5.641681 -0.731294 -1.898169 6.730946 -7.125000 0.000000 0.000000 83.949390 -4.994757 14.323987 -22.834704 32.145065 -6.719388 0.224455 -0.062065 5.981289 7.125000 0.000000 0.000000 
